<?xml version="1.0" encoding="utf-8"?>
<!-- Generator: Adobe Illustrator 24.0.0, SVG Export Plug-In . SVG Version: 6.00 Build 0)  -->
<svg version="1.1" id="Layer_1" xmlns="http://www.w3.org/2000/svg" xmlns:xlink="http://www.w3.org/1999/xlink" x="0px" y="0px"
	 viewBox="0 0 1087.76 153.85" style="enable-background:new 0 0 1087.76 153.85;" xml:space="preserve">
<style type="text/css">
	.st0{fill:#4D3849;}
</style>
<g>
	<g>
		<path class="st0" d="M135.3,153.14h5.06V49.39h-3.78L120.66,80.5l-15.93-31.11l-2.06-0.01H57.93l32.4-32.4l-3.56-3.56L54.45,45.75
			V0h-5.06v45.82l-32.4-32.4l-3.63,3.63l32.33,32.33H0v5.06h45.75L13.42,86.77l3.56,3.56l32.4-32.4v45.82h5.06V58.14L86.7,90.4
			l3.63-3.63L58,54.44h42.94v98.7h5.06V62.63l13.12,25.6h3.06l13.12-25.6V153.14z"/>
	</g>
	<g>
		<path class="st0" d="M159.74,153.14h5.06V49.39h-5.06V153.14z"/>
	</g>
	<g>
		<path class="st0" d="M231.06,48.67c-29.02,0-52.63,23.58-52.63,52.56c0,29.02,23.61,52.63,52.63,52.63
			c16.06,0,31.02-7.22,41.04-19.81l0.69-0.86l-4.03-3.15l-0.67,0.85c-9,11.38-22.49,17.91-37.02,17.91
			c-26.23,0-47.57-21.34-47.57-47.56c0-26.19,21.34-47.5,47.57-47.5c14.49,0,27.99,6.48,37.03,17.78l0.66,0.83l4.05-3.04l-0.71-0.88
			C262.05,55.87,247.1,48.67,231.06,48.67z"/>
	</g>
	<g>
		<path class="st0" d="M314.35,153.14h5.06V49.39h-5.06v33.93H290.3V49.39h-5.06v103.75h5.06V88.38h24.05V153.14z"/>
	</g>
	<g>
		<path class="st0" d="M338.78,153.14h26.91v-5.06h-21.85v-59.7h17.54v-5.06h-17.54V54.45h21.85v-5.06h-26.91V153.14z"/>
	</g>
	<g>
		<path class="st0" d="M378.6,153.14h27.27v-5.06h-22.21V49.39h-5.06V153.14z"/>
	</g>
	<g>
		<path class="st0" d="M416.62,153.14h48.12v-5.06h-43.05V49.39h-5.06V153.14z"/>
	</g>
	<g>
		<path class="st0" d="M442,102.32h21.31v-5.06h-16.24V76.52h13.37v-5.06h-13.37v-17h16.24v-5.06H442V102.32z"/>
	</g>
	<g>
		<path class="st0" d="M500.87,139.68l0.33,1.05c2.42,7.73,9.74,13.13,17.79,13.13c10.24,0,18.56-8.29,18.56-18.49
			c0-8.46-5.23-18.94-9.84-28.19l-10.49-21c-4.94-9.93-8.21-16.49-8.21-22.54c0-5.46,4.47-9.91,9.97-9.91
			c4.47,0,8.29,2.86,9.52,7.12l0.31,1.07l4.91-1.51l-0.32-1.04c-1.92-6.3-7.85-10.69-14.42-10.69c-8.29,0-15.04,6.71-15.04,14.97
			c0,7.42,3.9,15.11,9.3,25.76l0.23,0.46l9.32,18.78c4.76,9.46,9.68,19.23,9.68,26.73c0,7.4-6.06,13.42-13.5,13.42
			c-5.87,0-11.17-3.94-12.9-9.57l-0.32-1.05L500.87,139.68z"/>
	</g>
	<g>
		<path class="st0" d="M595.39,48.67c-29.02,0-52.63,23.58-52.63,52.56c0,29.02,23.61,52.63,52.63,52.63
			c16.06,0,31.02-7.22,41.03-19.81l0.69-0.86l-4.03-3.15l-0.67,0.85c-9,11.38-22.49,17.91-37.02,17.91
			c-26.23,0-47.57-21.34-47.57-47.56c0-26.19,21.34-47.5,47.57-47.5c14.49,0,27.99,6.48,37.02,17.78l0.66,0.83l4.05-3.04l-0.71-0.88
			C626.39,55.87,611.43,48.67,595.39,48.67z"/>
	</g>
	<g>
		<path class="st0" d="M678.79,153.14h5.11L664.22,49.39h-3.83l-19.68,103.75h5.11l12-64.76h8.96l0.08,0.41L678.79,153.14z
			 M665.81,83.31h-7l3.5-18.86L665.81,83.31z"/>
	</g>
	<g>
		<path class="st0" d="M746.8,102.32h5.04l-10.57-52.93h-4.74l-10.57,52.93h5.04l4.24-21.85h7.33L746.8,102.32z M741.63,75.48h-5.47
			l2.76-14.19L741.63,75.48z"/>
	</g>
	<g>
		<path class="st0" d="M751.21,153.14h6.29l-54.25-65.76l0.66-0.25c7.71-2.89,12.69-10.2,12.69-18.61c0-10.55-8.75-19.13-19.5-19.13
			h-2.67v103.75h5.06V90.4L751.21,153.14z M699.49,83.12V54.65l0.6,0.12c6.74,1.36,11.44,7.02,11.44,13.75
			c0,7.11-4.7,13.06-11.44,14.47L699.49,83.12z"/>
	</g>
	<g>
		<path class="st0" d="M809.58,48.67c-29.02,0-52.63,23.58-52.63,52.56c0,29.02,23.61,52.63,52.63,52.63
			c22.99,0,43.14-14.75,50.14-36.7l0.05-0.16v-2.92h-35.32v5.06h28.98l-0.29,0.69c-7.33,17.59-24.43,28.96-43.56,28.96
			c-26.23,0-47.57-21.34-47.57-47.56c0-26.19,21.34-47.5,47.57-47.5c14.5,0,27.99,6.48,37.03,17.78l0.66,0.83l4.05-3.04l-0.7-0.88
			C840.58,55.87,825.62,48.67,809.58,48.67z"/>
	</g>
	<g>
		<path class="st0" d="M902.43,102.32h5.06V49.39h-5.06V102.32z"/>
	</g>
	<g>
		<path class="st0" d="M870.87,153.14h48.12v-5.06h-43.05V49.39h-5.06V153.14z"/>
	</g>
	<g>
		<path class="st0" d="M964.78,153.14h4.17V49.39h-5.06v85.78l-29.97-85.78h-4.17v103.75h5.06V66.95L964.78,153.14z"/>
	</g>
	<g>
		<path class="st0" d="M1035.2,48.67c-29.02,0-52.63,23.58-52.63,52.56c0,29.02,23.61,52.63,52.63,52.63
			c28.98,0,52.56-23.61,52.56-52.63C1087.76,72.25,1064.18,48.67,1035.2,48.67z M1035.2,148.79c-26.23,0-47.57-21.34-47.57-47.56
			c0-26.19,21.34-47.5,47.57-47.5c26.19,0,47.5,21.31,47.5,47.5C1082.7,127.45,1061.39,148.79,1035.2,148.79z"/>
	</g>
</g>
</svg>
